<svg width="40" height="32" viewBox="0 0 40 32" fill="none" xmlns="http://www.w3.org/2000/svg">
<path d="M3.99869 28.52H6.28795L6.29296 8.53929L19.7205 18.0473L33.2061 8.47391L33.2006 28.5535H35.5006C37.1533 28.5535 37.6857 27.0448 37.6857 26.3663L37.6736 4.56127C37.6736 3.21995 37.2688 2.78042 36.7044 2.38893C35.9702 1.87971 34.9373 1.87287 34.1588 2.34098L19.7164 12.6184L5.97565 2.90565C5.63486 2.66401 4.87487 2.08945 4.1225 2.08945C3.18203 2.08945 2.61553 2.48823 2.29774 2.84027C2.05914 3.10458 1.80676 3.74492 1.80676 4.07557V26.3653C1.80676 28.0629 3.41965 28.52 3.99869 28.52Z" stroke="white" stroke-width="1.30431" stroke-linejoin="round"/>
<rect x="1.83062" y="1.9815" width="35.9582" height="26.545" rx="1.95647" stroke="white" stroke-width="1.30431"/>
</svg>
