<svg width="48" height="16" viewBox="0 0 48 16" fill="none" xmlns="http://www.w3.org/2000/svg">
<path fill-rule="evenodd" clip-rule="evenodd" d="M12.2038 2.07398C13.17 2.7075 13.4342 3.85938 13.1866 5.29594C12.951 6.66232 12.3313 7.88779 11.6026 8.81902C10.8982 9.71929 9.98656 10.4755 9.07705 10.7157C7.82614 11.0461 6.64819 10.9468 5.80468 10.778C5.37913 10.6928 5.02706 10.5876 4.77761 10.5022C4.65256 10.4593 4.55235 10.4211 4.48055 10.3923C4.44462 10.3779 4.41572 10.3659 4.39429 10.3567L4.36777 10.3452L4.35879 10.3412L4.35539 10.3397L4.35397 10.3391C4.35397 10.3391 4.35273 10.3385 4.76502 9.42745L4.35273 10.3385C3.84957 10.1108 3.62626 9.51832 3.85396 9.01516C4.08113 8.51319 4.67134 8.28975 5.17373 8.51479M5.17373 8.51479L5.18043 8.51768C5.1885 8.52113 5.20342 8.52741 5.22477 8.53596C5.26751 8.5531 5.33565 8.57924 5.42583 8.61014C5.60684 8.67215 5.87274 8.75197 6.19722 8.81691C6.85378 8.94833 7.70416 9.00977 8.56631 8.78205C8.8738 8.70083 9.44828 8.32676 10.0275 7.58654C10.5825 6.87728 10.8384 6.51647 11.0101 5.52057C11.1038 4.97722 11.1095 5.03909 11.0738 4.74337C11.0509 4.55336 10.999 4.43879 10.8695 4.29791C10.7289 4.14509 10.6405 4.06531 10.4671 3.92764C10.2346 3.74297 10.097 3.69866 9.81453 3.65235C9.41712 3.58718 9.11775 3.57112 8.7239 3.6662C8.37016 3.75159 8.06373 3.79471 7.9135 4.12615C7.69357 4.61135 7.96292 4.94631 8.43289 5.19713C8.8159 5.40155 9.09142 5.57725 9.19254 5.92619C9.34625 6.45666 9.16178 7.05542 8.71768 7.38375C8.27358 7.71207 7.09924 7.34043 6.33651 6.75447C5.95684 6.4628 6.02074 6.55518 5.52611 5.83456C5.1212 5.24465 4.91885 4.81973 4.92379 4.10425C4.93201 2.9133 5.6272 2.20696 6.64315 1.58544C7.55062 1.03029 8.69407 1.14716 9.32622 1.1145C9.61904 1.09938 10.3297 1.14568 10.958 1.35545C11.4533 1.52082 11.7833 1.79828 12.2038 2.07398" fill="black"/>
<path fill-rule="evenodd" clip-rule="evenodd" d="M2.70659 15.2117C1.53431 14.394 0.955326 12.8891 0.955322 10.6965C0.955322 10.4249 1.3987 9.89828 1.3987 9.89828C1.3987 9.89828 1.96429 10.3277 1.96429 10.5993C1.96429 12.6285 3.09198 13.3114 3.89466 13.8713C4.72831 14.4528 7.2287 13.5877 9.26898 12.9562C13.4838 11.6516 14.5242 10.6848 19.5023 8.12721C19.6209 8.06626 20.0827 7.83786 20.2017 7.77672C25.0383 5.29123 30.1677 2.47757 34.5946 1.17585C36.8638 0.508603 39.911 0.494101 41.7542 0.728004C43.6098 0.96347 45.5141 1.97444 46.6316 3.59033C47.1815 4.33295 47.4612 6.10771 47.5519 7.21204C47.6431 8.3241 46.9916 10.2352 46.2635 11.2037C45.8842 11.7065 45.2148 12.1541 44.4046 12.4694C43.5859 12.788 43.0042 12.8417 42.1899 12.7775C40.5027 12.6446 39.2556 11.405 38.9747 10.1476C38.7572 9.17392 38.9313 8.21083 39.234 7.11851C39.4173 6.4572 39.6813 5.9979 40.0768 5.47251C40.4021 5.04033 40.6447 4.86861 40.8763 4.98099C41.108 5.09338 40.7684 5.39984 40.5198 5.83829C40.1632 6.46697 39.9784 6.79826 39.8391 7.40428C39.6171 8.36978 39.6446 9.22174 39.8607 9.9533C40.1361 10.8855 40.8891 11.4991 42.1586 11.3513C42.6062 11.2991 43.101 11.2593 43.6635 10.9864C44.2339 10.7096 44.7415 10.2299 44.9886 9.90236C45.5314 9.17998 45.7226 8.36391 45.6463 7.43513C45.5697 6.50189 45.2341 5.62101 44.8035 5.04209L44.7982 5.03507L44.7932 5.02784C43.8555 3.6683 42.5278 2.9613 40.8694 2.75086C39.1961 2.53851 37.1999 2.8354 34.9823 3.48749C30.6371 4.7652 25.5903 7.35853 20.718 9.86219C20.6142 9.91555 20.5104 9.96887 20.4068 10.0221C15.4756 12.5556 11.5676 14.6073 8.03481 15.3206C6.2728 15.6764 3.84789 16.0078 2.70659 15.2117Z" fill="black"/>
</svg>
