<svg width="39" height="38" viewBox="0 0 39 38" fill="none" xmlns="http://www.w3.org/2000/svg">
<g clip-path="url(#clip0_303_73649)">
<path d="M12.6838 23.6222H16.1581V35.4071H21.3695V23.6222H26.5809V18.5352H21.3695V15.1439C21.3695 14.2113 22.1512 13.4482 23.1066 13.4482H26.5809V8.36123H22.2381C18.8854 8.36123 16.1581 11.0234 16.1581 14.2961V18.5352H12.6838V23.6222Z" fill="white"/>
<path fill-rule="evenodd" clip-rule="evenodd" d="M19.6323 35.2753C29.0785 35.2753 36.7362 27.8192 36.7362 18.6216C36.7362 9.42394 29.0785 1.96779 19.6323 1.96779C10.1861 1.96779 2.52847 9.42394 2.52847 18.6216C2.52847 27.8192 10.1861 35.2753 19.6323 35.2753ZM19.6323 36.861C29.978 36.861 38.3648 28.6949 38.3648 18.6216C38.3648 8.54817 29.978 0.38208 19.6323 0.38208C9.2867 0.38208 0.899902 8.54817 0.899902 18.6216C0.899902 28.6949 9.2867 36.861 19.6323 36.861Z" fill="white"/>
</g>
<defs>
<clipPath id="clip0_303_73649">
<rect width="38" height="37" fill="white" transform="translate(0.632324 0.121582)"/>
</clipPath>
</defs>
</svg>
