<svg width="20" height="21" viewBox="0 0 20 21" fill="none" xmlns="http://www.w3.org/2000/svg">
<circle r="2.55023" transform="matrix(-4.37114e-08 -1 -1 4.37114e-08 2.98273 3.53973)" fill="black"/>
<line x1="0.75" y1="-0.75" x2="12.6388" y2="-0.75" transform="matrix(4.37114e-08 1 1 -4.37114e-08 2.24976 7.55524)" stroke="black" stroke-width="1.5" stroke-linecap="round"/>
<line x1="0.75" y1="-0.75" x2="11.6121" y2="-0.75" transform="matrix(0.707107 0.707107 0.707107 -0.707107 6.45068 6.08997)" stroke="black" stroke-width="1.5" stroke-linecap="round"/>
<line x1="0.75" y1="-0.75" x2="5.63107" y2="-0.75" transform="matrix(0.933442 0.358727 0.358727 -0.933442 8.81616 4.7937)" stroke="black" stroke-width="1.5" stroke-linecap="round"/>
<line x1="0.75" y1="-0.75" x2="6.31599" y2="-0.75" transform="matrix(0.283262 0.959043 0.959043 -0.283262 4.44897 8.05469)" stroke="black" stroke-width="1.5" stroke-linecap="round"/>
<line x1="0.75" y1="-0.75" x2="11.3075" y2="-0.75" transform="matrix(1 0 0 -1 7.79248 2.35242)" stroke="black" stroke-width="1.5" stroke-linecap="round"/>
</svg>
