<svg width="273" height="283" viewBox="0 0 273 283" fill="none" xmlns="http://www.w3.org/2000/svg">
<path d="M214.365 21.4898C198.063 10.2043 182.076 9.57749 181.762 44.3742C181.617 50.9185 178.138 63.7095 172.866 68.2036C166.277 73.8212 154.177 77.2783 140.241 75.2257C126.305 73.173 115.826 100.073 111.504 105.259C107.183 110.444 95.4076 114.333 87.3052 116.602C79.2029 118.871 76.9342 137.884 78.5547 141.557C80.1751 145.23 81.9036 159.923 75.9619 164.892C71.2085 168.868 62.3859 170.438 58.5688 170.726C55.832 170.906 50.7041 172.908 52.0869 179.476C53.4697 186.045 47.2614 189.271 43.9845 190.064C39.2311 190.82 28.3199 192.267 22.7022 192.008C17.0845 191.749 15.4641 196.87 15.356 199.462C15.0679 201.119 15.248 204.821 18.2729 206.376C29.5082 210.59 26.5913 219.232 25.7271 220.42C25.0357 221.371 21.5499 224.13 19.8934 225.39C14.8159 229.711 11.6829 231.116 6.49742 235.761C1.31189 240.406 0.987793 245.052 0.987793 249.049C0.987793 253.046 2.93237 257.908 4.98497 260.068C7.03758 262.229 10.1705 265.038 16.3283 264.93C22.4861 264.822 24.3227 261.365 28.1038 260.068C31.8849 258.772 34.8018 261.148 35.558 262.661C36.3142 264.173 34.8018 269.251 34.4777 273.788C34.1536 278.326 35.2339 281.134 37.6106 281.891C39.9873 282.647 41.7158 282.323 50.0342 275.733C58.3527 269.143 53.7073 245.808 57.1644 242.243C60.6214 238.678 61.3776 239.434 78.5547 240.622C95.7317 241.811 98.5406 225.066 105.347 228.523C112.153 231.98 116.366 245.16 124.036 235.653C135.595 221.501 138.188 223.688 152.921 215.85C167.655 208.013 173.298 216.791 179.881 202.057C186.464 187.323 191.794 183.562 210.916 173.53C230.039 163.499 228.785 148.138 232.233 143.749C235.681 139.36 232.547 130.269 233.801 124.94C235.054 119.611 235.681 120.865 246.967 112.401C258.252 103.936 262.955 96.4128 265.776 88.2622C268.597 80.1116 267.03 79.7981 265.462 76.9768C263.895 74.1554 258.879 73.8419 253.237 70.3936C247.594 66.9453 245.713 62.243 249.475 51.5845C253.237 40.926 265.462 36.8507 269.851 28.0732C274.24 19.2956 271.419 9.89111 266.089 3.9349C260.76 -2.02131 248.534 -2.02131 241.951 9.5776C238.189 17.3102 227.405 30.5182 214.365 21.4898Z" fill="#F5C630"/>
</svg>
