<svg width="21" height="21" viewBox="0 0 21 21" fill="none" xmlns="http://www.w3.org/2000/svg">
<circle r="2.55023" transform="matrix(1 0 0 -1 18.0225 3.28546)" fill="black"/>
<line x1="0.75" y1="-0.75" x2="12.6388" y2="-0.75" transform="matrix(-1 0 0 1 14.0071 2.55237)" stroke="black" stroke-width="1.5" stroke-linecap="round"/>
<line x1="0.75" y1="-0.75" x2="11.6121" y2="-0.75" transform="matrix(-0.707107 0.707107 0.707107 0.707107 15.4723 6.7533)" stroke="black" stroke-width="1.5" stroke-linecap="round"/>
<line x1="0.75" y1="-0.75" x2="5.63107" y2="-0.75" transform="matrix(-0.358727 0.933442 0.933442 0.358727 16.7686 9.1189)" stroke="black" stroke-width="1.5" stroke-linecap="round"/>
<line x1="0.75" y1="-0.75" x2="6.31599" y2="-0.75" transform="matrix(-0.959043 0.283262 0.283262 0.959043 13.5076 4.75171)" stroke="black" stroke-width="1.5" stroke-linecap="round"/>
<line x1="0.75" y1="-0.75" x2="11.3075" y2="-0.75" transform="matrix(-4.37114e-08 1 1 4.37114e-08 19.2098 8.09521)" stroke="black" stroke-width="1.5" stroke-linecap="round"/>
</svg>
