<svg width="21" height="20" viewBox="0 0 21 20" fill="none" xmlns="http://www.w3.org/2000/svg">
<circle r="2.55023" transform="matrix(-1 -8.74228e-08 -8.74228e-08 1 2.71442 17.1252)" fill="black"/>
<line x1="0.75" y1="-0.75" x2="12.6388" y2="-0.75" transform="matrix(1 8.74228e-08 8.74228e-08 -1 6.72998 17.8583)" stroke="black" stroke-width="1.5" stroke-linecap="round"/>
<line x1="0.75" y1="-0.75" x2="11.6121" y2="-0.75" transform="matrix(0.707107 -0.707107 -0.707107 -0.707107 5.26465 13.6574)" stroke="black" stroke-width="1.5" stroke-linecap="round"/>
<line x1="0.75" y1="-0.75" x2="5.63107" y2="-0.75" transform="matrix(0.358727 -0.933442 -0.933442 -0.358727 3.96826 11.2917)" stroke="black" stroke-width="1.5" stroke-linecap="round"/>
<line x1="0.75" y1="-0.75" x2="6.31599" y2="-0.75" transform="matrix(0.959043 -0.283262 -0.283262 -0.959043 7.22925 15.6589)" stroke="black" stroke-width="1.5" stroke-linecap="round"/>
<line x1="0.75" y1="-0.75" x2="11.3075" y2="-0.75" transform="matrix(1.31134e-07 -1 -1 -1.31134e-07 1.5271 12.3154)" stroke="black" stroke-width="1.5" stroke-linecap="round"/>
</svg>
