<svg width="32" height="32" viewBox="0 0 32 32" fill="none" xmlns="http://www.w3.org/2000/svg">
<g clip-path="url(#clip0_1117_626)">
<circle cx="16" cy="16" r="16" fill="#EF464B"/>
<path d="M9.04393 9.053C9.27244 8.82477 9.58221 8.69657 9.90518 8.69657C10.2281 8.69657 10.5379 8.82477 10.7664 9.053L15.9989 14.2855L21.2314 9.053C21.3804 8.89257 21.5699 8.77529 21.7799 8.71352C21.9899 8.65175 22.2127 8.64777 22.4248 8.702C22.6369 8.75623 22.8305 8.86666 22.9851 9.02167C23.1397 9.17667 23.2496 9.37051 23.3033 9.58275C23.3576 9.79461 23.3538 10.0172 23.2923 10.2271C23.2309 10.437 23.114 10.6264 22.9539 10.7755L17.7214 16.008L22.9539 21.2405C23.1144 21.3895 23.2316 21.5789 23.2934 21.789C23.3552 21.999 23.3592 22.2218 23.3049 22.4339C23.2507 22.646 23.1403 22.8396 22.9853 22.9942C22.8303 23.1488 22.6364 23.2587 22.4242 23.3124C22.2123 23.3667 21.9897 23.3629 21.7798 23.3014C21.57 23.2399 21.3805 23.123 21.2314 22.963L15.9989 17.7305L10.7664 22.963C10.5353 23.1782 10.2297 23.2953 9.9139 23.2899C9.59814 23.2844 9.29678 23.1568 9.07318 22.9337C8.85016 22.7101 8.7225 22.4088 8.71705 22.093C8.7116 21.7773 8.82876 21.4717 9.04393 21.2405L14.2764 16.008L9.04393 10.7755C8.8157 10.547 8.6875 10.2372 8.6875 9.91425C8.6875 9.59128 8.8157 9.28151 9.04393 9.053Z" fill="white"/>
</g>
<defs>
<clipPath id="clip0_1117_626">
<rect width="32" height="32" fill="white"/>
</clipPath>
</defs>
</svg>
