<svg width="37" height="37" viewBox="0 0 37 37" fill="none" xmlns="http://www.w3.org/2000/svg">
<path fill-rule="evenodd" clip-rule="evenodd" d="M10.1092 15.6982C10.0637 15.5931 9.88356 15.6575 9.92131 15.7637C10.4698 17.3084 10.8538 18.9068 11.0668 20.5321C11.0858 20.6629 11.281 20.6187 11.2654 20.4908C11.1216 19.313 10.603 16.8386 10.1092 15.6982V15.6982ZM13.9876 29.6248C13.6256 29.5239 13.3913 29.456 13.0235 29.3773C12.9971 29.3703 12.969 29.374 12.9453 29.3874C12.9215 29.4009 12.904 29.4231 12.8964 29.4493C12.8889 29.4756 12.8918 29.5037 12.9047 29.5278C12.9177 29.5518 12.9395 29.5699 12.9655 29.578C13.2829 29.6878 13.7741 29.7505 13.8044 29.8215C13.8164 29.8499 13.0636 32.4582 12.935 32.659C12.8263 32.8286 12.651 32.6873 12.5062 32.6258C12.3445 32.5573 12.2257 32.5299 12.0635 32.4628C11.9108 32.3993 11.8388 32.6488 11.9916 32.7115C12.174 32.7863 12.3152 32.8173 12.498 32.8903C12.8036 33.0121 13.0253 33.1224 13.16 32.724C13.4864 31.7604 13.7685 30.7475 14.0686 29.7722C14.0767 29.7419 14.0728 29.7095 14.0576 29.682C14.0424 29.6545 14.0171 29.634 13.9871 29.6248H13.9876ZM7.26963 26.8646C9.06079 27.7888 10.9954 28.3839 12.9179 29.0157C12.4638 29.7577 11.5483 31.8581 11.5483 33.6646C9.41326 33.1153 2.08996 29.8917 1.39615 28.0993C0.702344 26.307 1.28134 18.7617 2.43729 17.172C3.22962 16.0825 5.45834 15.0472 7.03401 14.5846C8.28668 15.9316 10.5595 20.3526 11.3896 22.3604C11.3762 24.056 11.3923 25.7554 11.5214 27.4465C11.531 27.5713 11.7102 27.5442 11.7105 27.4247C11.7149 25.609 11.6609 23.7916 11.6669 21.9715C11.6748 19.5047 12.1052 17.1536 11.8509 14.6468C12.9317 14.839 13.9931 15.1278 15.0224 15.5097C15.0224 16.4708 14.897 26.0868 14.8795 28.8411C12.6466 28.7205 9.68353 27.6706 7.65723 26.7016C6.71856 26.2528 6.02955 25.9019 6.11656 24.7784C6.2273 23.3472 6.21364 21.9035 6.41966 20.4835C6.42238 20.4581 6.41516 20.4326 6.3995 20.4123C6.38385 20.3921 6.36098 20.3787 6.33568 20.375C6.31038 20.3713 6.28462 20.3775 6.26379 20.3923C6.24296 20.4071 6.22868 20.4295 6.22394 20.4546C5.95116 21.7818 5.88225 23.6283 5.84582 24.9938C5.82125 25.9139 6.46604 26.4496 7.26927 26.864L7.26963 26.8646ZM11.862 22.9429C11.8517 22.9679 11.8514 22.9959 11.8612 23.0212C11.871 23.0464 11.8901 23.0669 11.9146 23.0784C11.9391 23.0899 11.9671 23.0915 11.9927 23.0829C12.0184 23.0743 12.0397 23.0561 12.0524 23.0322C12.5024 22.1692 12.8908 21.2755 13.2149 20.3578C13.4929 19.5941 13.7244 19.2206 13.0815 18.5792C12.8049 18.3029 12.7425 18.2298 13.0683 18.1452C13.2658 18.0979 13.4542 18.0188 13.6262 17.9109C13.8322 17.7502 13.779 17.5123 13.6883 17.3024C13.4156 16.6502 13.0876 16.0224 12.7079 15.4261C12.6369 15.3182 12.4884 15.4288 12.546 15.5374C12.7542 15.9301 13.4655 17.1646 13.5318 17.5474C13.5764 17.8063 13.0186 17.907 12.8053 17.9858C12.3575 18.1499 12.5916 18.4342 12.8349 18.6679C13.462 19.2706 13.2962 19.4462 13.0257 20.1967C12.685 21.1424 12.2816 22.0304 11.8624 22.9429H11.862ZM6.62352 15.6695C6.66032 15.5565 6.83925 15.6188 6.81252 15.7322C6.7188 16.1285 6.53567 16.9002 6.57654 17.3022C6.59679 17.5016 6.74433 17.5819 6.90816 17.6408C7.19005 17.7424 7.48021 17.8229 7.76509 17.9151C8.44188 18.1341 8.27002 18.4424 8.22735 19.0316C8.16012 19.9578 8.09324 19.9601 8.8121 20.5675C9.50195 21.1504 10.2124 21.831 10.9272 22.3652C11.042 22.4511 10.8999 22.618 10.7882 22.5364C10.0251 21.9787 9.05635 21.123 8.35955 20.4854C7.84779 20.0169 7.96404 19.5765 8.00875 18.9553C8.03823 18.545 8.19032 18.3014 7.72566 18.1478C7.43802 18.053 7.14738 17.969 6.86166 17.8696C6.66163 17.7998 6.45753 17.6918 6.38526 17.4685C6.26529 17.097 6.50559 16.0318 6.62352 15.6695Z" fill="#ED3237"/>
<path fill-rule="evenodd" clip-rule="evenodd" d="M7.7176 7.85904C7.81132 7.92963 7.91116 7.81289 7.95047 7.73787C8.25093 7.16391 8.45384 6.31333 8.32284 5.6713C8.30127 5.56547 8.12137 5.5578 8.12329 5.67741C8.13528 6.41545 8.10615 6.93583 7.75487 7.60855C7.39089 7.28568 6.75125 7.28388 6.65441 7.81829C6.56836 8.29397 6.79895 9.07 7.144 9.41145C7.20777 9.48231 7.29113 9.53267 7.38353 9.55613C7.47593 9.5796 7.57321 9.57513 7.66307 9.54329C7.80437 10.7559 8.01063 11.9637 8.05989 13.2596C8.06489 13.2837 8.07826 13.3052 8.09764 13.3203C8.11701 13.3355 8.14113 13.3433 8.1657 13.3423C8.19028 13.3413 8.21371 13.3317 8.23184 13.3151C8.24997 13.2985 8.26162 13.276 8.26471 13.2516C8.34453 12.1041 8.01603 10.4941 7.84188 9.34913C7.82391 9.23024 7.71388 9.1829 7.63383 9.24834C7.44314 9.40414 7.28326 9.18434 7.18906 9.02649C7.0305 8.76091 6.82364 8.15686 6.92467 7.84453C7.048 7.46353 7.50822 7.70155 7.7176 7.85904V7.85904ZM10.8804 13.7512C10.899 13.9764 10.9336 15.347 10.7442 15.4023C10.5292 15.4649 9.82911 14.8095 9.43577 14.7261C9.25 14.8728 8.29863 15.6029 8.06385 15.4301C7.77621 15.2187 7.69794 13.884 7.7152 13.5829C7.71768 13.5643 7.72436 13.5464 7.73474 13.5306C7.74513 13.5149 7.75894 13.5017 7.77514 13.4921C7.79135 13.4825 7.80952 13.4766 7.82831 13.475C7.84709 13.4734 7.86599 13.4761 7.88359 13.4829C8.41805 13.6382 8.92684 13.871 9.3937 14.174C9.70333 14.037 9.99796 13.8683 10.2729 13.6707C10.4981 13.5083 10.8385 13.2386 10.881 13.7513L10.8804 13.7512ZM10.1313 11.9802C11.0276 12.2138 11.9004 11.9967 12.2616 11.0548C12.8294 9.57457 12.2863 6.54992 11.5723 5.07792C11.514 4.95747 11.3465 5.05395 11.3926 5.1738C12.0309 6.81467 12.5128 8.8098 12.176 10.557C11.9523 11.7177 11.1635 12.0551 10.0897 11.7471C9.82947 11.6724 9.57431 11.5707 9.3285 11.4789C9.21093 11.435 9.16371 11.6123 9.27241 11.6614C9.48302 11.7587 9.69875 11.8444 9.91864 11.9183C9.97018 12.3154 9.93458 13.139 9.94752 13.3524C9.95472 13.4706 10.1308 13.465 10.1513 13.3509C10.1931 13.1183 10.1581 12.2054 10.1311 11.9808L10.1313 11.9802ZM9.89419 3.57429C9.77794 3.57872 9.78417 3.76173 9.89539 3.77575C10.4334 3.84347 11.2518 3.9964 11.1756 4.73072C11.1751 4.75444 11.1833 4.77753 11.1988 4.79552C11.2143 4.81351 11.2359 4.82512 11.2594 4.8281C11.283 4.83108 11.3068 4.82522 11.3263 4.81166C11.3457 4.7981 11.3595 4.7778 11.3649 4.75469C11.5348 3.95373 10.5619 3.5478 9.89419 3.57381V3.57429ZM10.5156 4.86171C10.5281 4.88396 10.5312 4.91025 10.5242 4.93478C10.5173 4.95931 10.5009 4.98009 10.4786 4.99253C10.4564 5.00497 10.4301 5.00807 10.4056 5.00114C10.381 4.9942 10.3603 4.97781 10.3478 4.95556C10.1388 4.6448 9.85202 4.39429 9.51599 4.22899C9.17996 4.0637 8.80645 3.98941 8.43274 4.01354C7.86861 4.03511 6.52066 4.37896 6.41172 5.04077C6.39014 5.17153 6.16674 5.13964 6.18256 5.00961C6.27844 4.22231 7.68584 3.83065 8.3431 3.78498C9.17353 3.72733 10.1274 4.0773 10.5157 4.86171H10.5156ZM9.06855 5.21096C9.16311 5.2716 9.07622 5.43687 8.97518 5.38654C8.36167 5.08068 7.59847 4.9522 6.96422 5.28406C6.20989 5.67861 6.37864 6.49359 6.78073 7.08577C6.79758 7.10862 6.80495 7.1371 6.8013 7.16525C6.79766 7.19341 6.78328 7.21907 6.76117 7.23688C6.73906 7.2547 6.71093 7.26328 6.68264 7.26085C6.65435 7.25842 6.62809 7.24516 6.60935 7.22383C6.09951 6.62051 6.02209 5.60586 6.75545 5.14276C7.4266 4.71861 8.41405 4.791 9.06855 5.21096V5.21096ZM11.7503 7.60028C11.8543 7.67471 11.8011 7.75357 11.7067 7.7622C11.5909 7.75425 11.4745 7.76175 11.3607 7.78449C11.2638 7.80846 11.1906 7.70827 11.3085 7.61862C11.3745 7.57822 11.4497 7.55533 11.527 7.55212C11.6043 7.54891 11.6812 7.56549 11.7503 7.60028V7.60028ZM10.207 7.68873C10.4098 7.73991 10.4175 7.91153 10.195 7.89655C10.0347 7.89265 9.87512 7.91959 9.72496 7.97589C9.63316 8.00429 9.5845 7.89439 9.66756 7.82009C9.74285 7.76094 9.82996 7.71866 9.92301 7.6961C10.0161 7.67354 10.1129 7.67123 10.2069 7.68933L10.207 7.68873ZM11.7857 6.88897C11.8474 6.98893 11.7682 7.07031 11.6792 7.00702C11.4359 6.83324 11.262 6.8855 11.0881 7.06899C11.0703 7.0861 11.0468 7.09621 11.0221 7.0975C10.9974 7.09879 10.973 7.09117 10.9535 7.07601C10.9339 7.06086 10.9204 7.03918 10.9155 7.01493C10.9106 6.99068 10.9145 6.96546 10.9266 6.94386C11.0772 6.63225 11.6121 6.60745 11.7857 6.88897V6.88897ZM10.2781 6.97107C10.406 7.05101 10.2728 7.24672 10.1462 7.16487C10.0127 7.07912 9.8507 7.04963 9.69552 7.08284C9.54034 7.11604 9.40458 7.20924 9.31783 7.34212C9.30244 7.36253 9.27979 7.37622 9.25457 7.38037C9.22935 7.38452 9.20351 7.3788 9.18239 7.3644C9.16128 7.35001 9.14651 7.32804 9.14116 7.30305C9.1358 7.27806 9.14027 7.25197 9.15364 7.23018C9.37081 6.82677 9.90426 6.73724 10.2783 6.97107H10.2781ZM11.8002 10.0642C12.0232 10.2439 11.9629 10.3039 11.7097 10.2411C11.5527 10.1872 11.3913 10.1471 11.2274 10.1212C11.2051 10.1175 11.1848 10.1063 11.1697 10.0894C11.1547 10.0726 11.1459 10.0511 11.1448 10.0285C11.1436 10.006 11.1502 9.98368 11.1635 9.9654C11.1768 9.94712 11.1959 9.93392 11.2177 9.928C11.3168 9.89288 11.4237 9.88616 11.5264 9.90859C11.6261 9.94416 11.7187 9.99689 11.8002 10.0644V10.0642ZM10.8761 9.95293C10.9549 9.98889 10.9824 10.0879 10.908 10.1362C10.7602 10.2029 10.6076 10.2583 10.4514 10.3019C10.2996 10.3595 10.1781 10.4194 10.026 10.4865C9.84625 10.5657 9.70171 10.5169 9.91169 10.3577C10.0555 10.2485 10.1859 10.0953 10.3524 10.0234C10.4868 9.96528 10.7609 9.89948 10.8766 9.95293H10.8761ZM10.9863 7.50632C11.2621 8.11036 11.408 8.76556 11.4147 9.42955C11.4126 9.89696 11.1398 9.83836 10.8144 9.72198C10.6747 9.68052 10.5423 9.61747 10.422 9.53514C10.4063 9.52027 10.3958 9.50072 10.3922 9.47941C10.3885 9.4581 10.3918 9.43617 10.4017 9.41692C10.4115 9.39766 10.4273 9.38211 10.4467 9.37259C10.4662 9.36307 10.4881 9.36009 10.5094 9.36411C10.6247 9.39887 10.7315 9.45999 10.844 9.50338C11.0424 9.57912 11.197 9.6092 11.1952 9.4389C11.1889 8.79424 11.0564 8.15705 10.8051 7.56337C10.7576 7.44783 10.9364 7.39857 10.9867 7.50632H10.9863ZM21.0536 29.6632C21.1975 29.4905 21.2993 29.6763 21.2183 29.7815C20.9236 30.1642 20.0884 30.189 19.6363 30.2393C18.0919 30.4103 17.7568 30.7906 16.4183 31.428C15.5283 31.8644 14.5383 32.0564 13.5496 31.9843C13.1735 31.9613 13.3499 31.7283 13.5605 31.7384C14.4091 31.7789 15.3279 31.6676 16.5459 31.054C17.7485 30.4482 18.1949 30.158 19.5643 30.004C19.9677 29.9587 20.7951 29.9736 21.0536 29.6632V29.6632ZM22.5038 17.3426C22.5327 16.1669 23.5735 14.9816 24.9419 14.9816C26.5223 14.9816 27.3907 16.3212 27.4045 17.1788C25.8186 17.3136 23.3326 17.3618 22.5038 17.3426V17.3426ZM24.7492 12.3261C25.3922 12.2677 25.9059 12.5864 25.9249 13.3477C25.944 14.109 25.3948 14.4558 24.9612 14.4558C24.5276 14.4558 23.8144 14.1571 23.7662 13.4922C23.718 12.8273 24.1138 12.384 24.749 12.3261H24.7492ZM29.2035 9.04219C29.1801 9.03514 29.1549 9.03606 29.132 9.0448C29.1091 9.05355 29.0897 9.06962 29.0769 9.09053C29.0641 9.11143 29.0585 9.13598 29.0611 9.16037C29.0637 9.18475 29.0743 9.20759 29.0912 9.22532C29.2674 9.46203 29.3937 9.57397 29.4298 9.89648C29.4561 10.1304 29.6493 10.1806 29.7001 9.89265C29.7532 9.59182 29.4903 9.13376 29.2035 9.04243V9.04219ZM28.18 8.84732C28.6611 8.78368 29.0821 9.63761 29.0627 10.0644C29.0477 10.396 28.8361 10.4812 28.7726 10.084C28.7246 9.78035 28.5329 9.10248 28.1797 9.05586C28.1549 9.0519 28.1323 9.03923 28.116 9.02012C28.0997 9.00101 28.0907 8.97671 28.0907 8.95159C28.0907 8.92647 28.0997 8.90217 28.116 8.88306C28.1323 8.86395 28.1549 8.85128 28.1797 8.84732H28.18ZM28.2196 10.0818C28.2238 9.44837 27.7642 8.61817 27.034 8.80154C26.9459 8.82371 26.9228 8.98778 27.035 9.003C27.6974 9.09301 27.8096 9.57505 27.9021 10.1392C27.9784 10.6037 28.2166 10.5485 28.2196 10.0818V10.0818ZM25.9557 9.07935C26.5839 8.56004 27.4658 9.39875 27.2981 10.2008C27.2614 10.3765 27.0688 10.2737 27.0557 10.1237C27.0213 9.72666 26.7561 9.00912 26.0595 9.25205C25.9662 9.28453 25.8759 9.14538 25.9557 9.07935V9.07935ZM35.2718 19.2992C35.2425 16.9861 35.3654 14.5688 35.2718 12.286C35.2081 10.728 35.168 9.81403 33.4227 9.59818C32.3809 9.46934 31.0408 9.57145 30.0298 9.57792C30.0028 9.57901 29.9773 9.59044 29.9586 9.60984C29.9398 9.62924 29.9292 9.65512 29.9291 9.68211C29.9289 9.70909 29.9391 9.73511 29.9576 9.75476C29.9761 9.77442 30.0014 9.7862 30.0284 9.78766C31.0863 9.84027 32.3083 9.80755 33.2733 9.86568C34.8124 9.95833 35.0314 10.7637 35.034 12.4444C35.0375 14.7485 34.9741 17.0497 34.9952 19.3568C35.0169 21.7376 35.2055 24.3831 35.1365 26.7331C35.0683 29.055 33.9794 28.9623 32.3575 29.0022C27.4697 29.1243 22.2875 29.0349 17.4122 29.0711C17.3004 29.072 17.3005 29.2682 17.4122 29.2692C22.0835 29.3172 27.4222 29.4433 32.1245 29.3119C34.301 29.251 35.2657 29.3384 35.4243 26.807C35.5553 24.7159 35.2872 20.5699 35.2712 19.2998L35.2718 19.2992ZM26.2596 9.56486C23.5294 9.5343 20.6221 9.45136 17.9006 9.54664C16.5747 9.59302 15.0069 10.0806 15.0069 11.6657C15.0041 15.9187 14.9815 20.171 14.9882 24.4248C14.9896 25.412 14.9119 26.6666 15.0226 27.6104C15.0739 28.0475 15.217 28.3523 15.539 28.6031C15.6321 28.6757 15.8147 28.5545 15.6913 28.4314C15.3924 28.134 15.3078 27.8279 15.2812 27.4469C15.2093 26.3958 15.2786 25.167 15.2792 24.0929C15.2811 19.9538 15.2672 15.8142 15.2672 11.6755C15.2672 10.1236 16.9239 9.83476 18.1488 9.81978C20.8428 9.7867 23.5421 9.85394 26.2375 9.84015C26.4131 9.8392 26.4383 9.5669 26.2592 9.5645L26.2596 9.56486ZM27.3008 24.2116C27.3513 24.2074 27.4021 24.2144 27.4496 24.2321C27.497 24.2499 27.54 24.2779 27.5753 24.3143C27.6106 24.3506 27.6374 24.3943 27.6538 24.4422C27.6703 24.4902 27.6758 24.5412 27.6702 24.5915C27.6327 24.9224 27.2488 24.9212 27.0949 24.7026C27.0619 24.6597 27.0408 24.6088 27.0338 24.5551C27.0269 24.5014 27.0342 24.4468 27.0552 24.3969C27.0762 24.347 27.11 24.3035 27.1532 24.2709C27.1964 24.2383 27.2475 24.2177 27.3013 24.2112L27.3008 24.2116ZM26.0116 24.2344C26.0612 24.2446 26.1073 24.2674 26.1456 24.3006C26.1839 24.3337 26.2131 24.3761 26.2304 24.4238C26.2477 24.4714 26.2525 24.5226 26.2444 24.5726C26.2364 24.6226 26.2156 24.6697 26.1842 24.7094C26.0195 24.9333 25.6127 24.8132 25.5976 24.5793C25.598 24.528 25.6096 24.4774 25.6316 24.4311C25.6535 24.3847 25.6853 24.3437 25.7247 24.3109C25.7641 24.2781 25.8101 24.2542 25.8597 24.241C25.9092 24.2278 25.9611 24.2255 26.0116 24.2344V24.2344ZM24.8748 24.4093C24.8995 24.4436 24.917 24.4826 24.9263 24.5238C24.9356 24.565 24.9365 24.6077 24.9289 24.6492C24.9214 24.6908 24.9055 24.7304 24.8823 24.7658C24.8591 24.8011 24.8291 24.8314 24.7939 24.8548C24.7435 24.8799 24.6875 24.8918 24.6312 24.8894C24.5749 24.8869 24.5202 24.8701 24.4721 24.8407C24.4241 24.8112 24.3843 24.7701 24.3566 24.721C24.3289 24.672 24.314 24.6167 24.3136 24.5603C24.3179 24.4964 24.342 24.4355 24.3827 24.386C24.4233 24.3365 24.4784 24.301 24.5402 24.2843C24.6021 24.2677 24.6676 24.2708 24.7276 24.2932C24.7876 24.3156 24.839 24.3562 24.8748 24.4093V24.4093ZM23.3591 24.3604C23.5795 24.4417 23.6696 24.7134 23.4512 24.8374C23.3771 24.8812 23.2922 24.9031 23.2061 24.9006C23.1201 24.8981 23.0365 24.8712 22.9651 24.8232C22.7015 24.6142 22.931 24.2027 23.3591 24.3604ZM21.7158 24.3288C21.7653 24.318 21.8166 24.3185 21.8658 24.3305C21.915 24.3425 21.9608 24.3655 21.9997 24.3979C22.0387 24.4303 22.0697 24.4711 22.0905 24.5173C22.1112 24.5635 22.1212 24.6138 22.1196 24.6644C22.103 24.9646 21.7499 24.975 21.5665 24.8255C21.525 24.7896 21.4948 24.7425 21.4795 24.6899C21.4642 24.6372 21.4645 24.5813 21.4803 24.5288C21.4961 24.4763 21.5267 24.4295 21.5685 24.394C21.6103 24.3586 21.6615 24.336 21.7158 24.3289V24.3288ZM20.4872 24.3734C20.5358 24.3793 20.5822 24.3966 20.6228 24.4239C20.6634 24.4512 20.697 24.4877 20.7208 24.5304C20.7446 24.5731 20.7579 24.6208 20.7598 24.6697C20.7616 24.7186 20.7519 24.7672 20.7314 24.8116C20.6302 25.0418 20.2345 25.0828 20.1423 24.7895C20.1263 24.7382 20.1234 24.6838 20.1338 24.6311C20.1442 24.5785 20.1676 24.5292 20.2019 24.4879C20.2362 24.4466 20.2802 24.4144 20.33 24.3944C20.3799 24.3744 20.4339 24.3672 20.4872 24.3734ZM31.0272 25.7549C31.0814 25.0486 30.9883 23.8794 31.043 23.4509C31.058 23.3326 31.2391 23.286 31.2666 23.423C31.2717 23.4477 31.3167 25.1751 31.2887 25.7036C31.2735 25.9922 31.3061 26.0188 30.9856 26.0373C28.6164 26.173 26.1724 26.1593 23.7946 26.1931C22.2565 26.215 20.7576 26.253 19.2195 26.22C18.9838 26.215 19.0375 26.1269 19.0234 25.9312C18.9807 25.3416 19.0234 24.5649 19.0127 23.5908C19.0172 23.551 19.0356 23.5142 19.0647 23.4867C19.0938 23.4592 19.1316 23.4429 19.1715 23.4407C22.4577 23.3101 26.9782 23.3139 30.6805 23.2547C30.7137 23.2562 30.7451 23.2706 30.7681 23.2947C30.791 23.3188 30.8038 23.3509 30.8037 23.3842C30.8036 23.4175 30.7906 23.4495 30.7675 23.4734C30.7444 23.4974 30.7129 23.5115 30.6796 23.5129C26.7899 23.4902 22.3447 23.7377 19.2674 23.6421C19.2428 24.4471 19.2843 25.3043 19.2554 26C21.6644 25.9264 24.0494 25.9325 26.4626 25.881C27.9921 25.8483 29.5041 25.7588 31.0279 25.7549H31.0272ZM30.9792 21.1527C31.0645 20.4188 30.9401 19.6213 30.9773 18.9094C27.0872 18.9413 23.1318 18.9491 19.2403 18.9534C19.2135 19.5831 19.2341 20.7118 19.2057 21.299C19.1991 21.4353 18.9952 21.4498 18.9899 21.3086C18.9643 20.6105 18.9496 19.7305 18.9787 19.0236C18.9907 18.7282 19.0284 18.7275 19.2999 18.7214C22.893 18.6413 27.2549 18.5707 30.8414 18.6615C31.136 18.669 31.1829 18.6794 31.2241 18.997C31.2766 19.4024 31.3151 20.9827 31.2351 21.3059C31.2292 21.337 31.2127 21.3651 31.1886 21.3856C31.1644 21.4061 31.134 21.4176 31.1023 21.4184C27.2217 21.5067 23.463 21.5695 19.7136 21.5213C19.5753 21.5196 19.5916 21.3113 19.7256 21.31C23.4794 21.2694 27.2623 21.1754 30.9795 21.1516L30.9792 21.1527ZM17.2409 27.8828C17.7636 27.754 17.8251 28.1225 17.4834 28.4562C17.1859 28.7432 16.9475 29.0856 16.7815 29.4642C16.7193 29.6046 16.4938 29.5213 16.5566 29.3803C16.7475 28.9577 17.0164 28.5748 17.3492 28.2518C17.5115 28.0897 17.4983 28.0778 17.2919 28.1304C16.1614 28.4181 15.3655 29.9809 14.1229 29.8891C13.6944 29.8576 13.7697 29.6691 14.1229 29.6614C15.3136 29.6344 16.0837 28.1681 17.2409 27.8828Z" fill="black"/>
</svg>
