<svg width="20" height="21" viewBox="0 0 20 21" fill="none" xmlns="http://www.w3.org/2000/svg">
<circle r="2.55023" transform="matrix(-4.37114e-08 1 1 4.37114e-08 17.3 18.3937)" fill="black"/>
<line x1="0.75" y1="-0.75" x2="12.6388" y2="-0.75" transform="matrix(4.37114e-08 -1 -1 -4.37114e-08 18.033 14.3783)" stroke="black" stroke-width="1.5" stroke-linecap="round"/>
<line x1="0.75" y1="-0.75" x2="11.6121" y2="-0.75" transform="matrix(-0.707107 -0.707107 -0.707107 0.707107 13.832 15.8435)" stroke="black" stroke-width="1.5" stroke-linecap="round"/>
<line x1="0.75" y1="-0.75" x2="5.63107" y2="-0.75" transform="matrix(-0.933442 -0.358727 -0.358727 0.933442 11.4666 17.1398)" stroke="black" stroke-width="1.5" stroke-linecap="round"/>
<line x1="0.75" y1="-0.75" x2="6.31599" y2="-0.75" transform="matrix(-0.283262 -0.959043 -0.959043 0.283262 15.8337 13.8788)" stroke="black" stroke-width="1.5" stroke-linecap="round"/>
<line x1="0.75" y1="-0.75" x2="11.3075" y2="-0.75" transform="matrix(-1 -8.74228e-08 -8.74228e-08 1 12.4902 19.5811)" stroke="black" stroke-width="1.5" stroke-linecap="round"/>
</svg>
