<svg width="32" height="32" viewBox="0 0 32 32" fill="none" xmlns="http://www.w3.org/2000/svg">
<circle cx="16" cy="16" r="16" fill="#EF464B"/>
<path opacity="0.16" d="M20 24.5H12C11.6022 24.5 11.2206 24.342 10.9393 24.0607C10.658 23.7794 10.5 23.3978 10.5 23V11.5H21.5V23C21.5 23.3978 21.342 23.7794 21.0607 24.0607C20.7794 24.342 20.3978 24.5 20 24.5Z" stroke="#FEFEFE"/>
<path d="M18 15V21M14 15V21M10 11V23C10 23.5304 10.2107 24.0391 10.5858 24.4142C10.9609 24.7893 11.4696 25 12 25H20C20.5304 25 21.0391 24.7893 21.4142 24.4142C21.7893 24.0391 22 23.5304 22 23V11M8 11H24M11 11L13 7H19L21 11" stroke="#FEFEFE" stroke-width="2" stroke-linecap="round" stroke-linejoin="round"/>
</svg>
