<svg width="35" height="35" viewBox="0 0 35 35" fill="none" xmlns="http://www.w3.org/2000/svg">
<path d="M17.6324 3.73976C22.1601 3.73976 22.6946 3.75572 24.4817 3.83949C26.1332 3.91528 27.0308 4.19053 27.6292 4.4219C28.419 4.72906 28.9855 5.09607 29.5799 5.69045C30.1742 6.28483 30.5412 6.8473 30.8484 7.64114C31.0798 8.23951 31.355 9.13706 31.4308 10.7886C31.5106 12.5757 31.5305 13.1142 31.5305 17.6379C31.5305 22.1616 31.5146 22.7001 31.4308 24.4873C31.355 26.1388 31.0798 27.0363 30.8484 27.6347C30.5412 28.4245 30.1742 28.991 29.5799 29.5854C28.9855 30.1798 28.423 30.5468 27.6292 30.8539C27.0308 31.0853 26.1332 31.3605 24.4817 31.4363C22.6946 31.5161 22.1601 31.5361 17.6324 31.5361C13.1047 31.5361 12.5702 31.5201 10.783 31.4363C9.13154 31.3605 8.23398 31.0853 7.63561 30.8539C6.84576 30.5468 6.2793 30.1798 5.68492 29.5854C5.09053 28.991 4.72354 28.4285 4.41637 27.6347C4.185 27.0363 3.90974 26.1388 3.83395 24.4873C3.75417 22.7001 3.73422 22.1616 3.73422 17.6379C3.73422 13.1142 3.75018 12.5757 3.83395 10.7886C3.90974 9.13706 4.185 8.23951 4.41637 7.64114C4.72354 6.85129 5.09053 6.28483 5.68492 5.69045C6.2793 5.09607 6.84177 4.72906 7.63561 4.4219C8.23398 4.19053 9.13154 3.91528 10.783 3.83949C12.5702 3.75971 13.1087 3.73976 17.6324 3.73976ZM17.6324 0.684082C13.0289 0.684082 12.4505 0.704026 10.6434 0.787797C8.84032 0.871569 7.60767 1.1548 6.52662 1.57764C5.41365 2.01246 4.46824 2.59089 3.52281 3.53233C2.58137 4.47376 1.99895 5.41919 1.56812 6.53614C1.14926 7.61321 0.862054 8.84585 0.778282 10.6529C0.69451 12.46 0.674561 13.0384 0.674561 17.6419C0.674561 22.2454 0.69451 22.8238 0.778282 24.6309C0.862054 26.434 1.14527 27.6666 1.56812 28.7477C2.00294 29.8606 2.58137 30.8061 3.52281 31.7515C4.46425 32.6929 5.40966 33.2753 6.52662 33.7062C7.60368 34.125 8.83633 34.4122 10.6434 34.496C12.4505 34.5798 13.0289 34.5997 17.6324 34.5997C22.2358 34.5997 22.8143 34.5798 24.6214 34.496C26.4244 34.4122 27.6571 34.129 28.7382 33.7062C29.8511 33.2713 30.7965 32.6929 31.742 31.7515C32.6834 30.81 33.2658 29.8646 33.6966 28.7477C34.1155 27.6706 34.4027 26.4379 34.4865 24.6309C34.5703 22.8238 34.5902 22.2454 34.5902 17.6419C34.5902 13.0384 34.5703 12.46 34.4865 10.6529C34.4027 8.84984 34.1195 7.6172 33.6966 6.53614C33.2618 5.42318 32.6834 4.47775 31.742 3.53233C30.8005 2.59089 29.8551 2.00847 28.7382 1.57764C27.6611 1.15879 26.4284 0.871569 24.6214 0.787797C22.8143 0.704026 22.2358 0.684082 17.6324 0.684082Z" fill="white"/>
<path d="M17.6324 8.93359C12.8255 8.93359 8.9281 12.831 8.9281 17.6379C8.9281 22.4448 12.8255 26.3422 17.6324 26.3422C22.4393 26.3422 26.3367 22.4448 26.3367 17.6379C26.3367 12.831 22.4393 8.93359 17.6324 8.93359ZM17.6324 23.2905C14.5129 23.2905 11.9798 20.7614 11.9798 17.6379C11.9798 14.5144 14.5089 11.9853 17.6324 11.9853C20.7559 11.9853 23.285 14.5144 23.285 17.6379C23.285 20.7614 20.7559 23.2905 17.6324 23.2905Z" fill="white"/>
<path d="M26.684 10.6248C27.8076 10.6248 28.7184 9.71397 28.7184 8.59036C28.7184 7.46676 27.8076 6.55591 26.684 6.55591C25.5604 6.55591 24.6495 7.46676 24.6495 8.59036C24.6495 9.71397 25.5604 10.6248 26.684 10.6248Z" fill="white"/>
</svg>
