<?xml version="1.0" encoding="iso-8859-1"?>
<!-- Generator: Adobe Illustrator 16.0.0, SVG Export Plug-In . SVG Version: 6.00 Build 0)  -->
<!DOCTYPE svg PUBLIC "-//W3C//DTD SVG 1.1//EN" "http://www.w3.org/Graphics/SVG/1.1/DTD/svg11.dtd">
<svg version="1.1" id="Capa_1" xmlns="http://www.w3.org/2000/svg" xmlns:xlink="http://www.w3.org/1999/xlink" x="0px" y="0px"
	 width="511.969px" height="511.969px" viewBox="0 0 511.969 511.969" style="enable-background:new 0 0 511.969 511.969;"
	 xml:space="preserve">
<g>
	<g>
		<g>
			<polygon points="447.969,335.984 181.531,335.984 69.531,79.984 0,79.984 0,47.984 90.468,47.984 202.468,303.984 
				447.969,303.984 			"/>
		</g>
		<polygon points="511.969,111.984 447.969,271.984 223.984,271.984 160,111.984 		"/>
		<path d="M287.968,415.984c0,26.5-21.483,48-47.984,48c-26.5,0-47.984-21.5-47.984-48s21.484-48,47.984-48
			C266.484,367.984,287.968,389.484,287.968,415.984z"/>
		<path d="M447.969,415.984c0,26.5-21.5,48-48,48s-48-21.5-48-48s21.5-48,48-48S447.969,389.484,447.969,415.984z"/>
	</g>
</g>
<g>
</g>
<g>
</g>
<g>
</g>
<g>
</g>
<g>
</g>
<g>
</g>
<g>
</g>
<g>
</g>
<g>
</g>
<g>
</g>
<g>
</g>
<g>
</g>
<g>
</g>
<g>
</g>
<g>
</g>
</svg>
