<svg width="33" height="34" viewBox="0 0 33 34" fill="none" xmlns="http://www.w3.org/2000/svg">
<path d="M1.37146 32.1563L3.51893 24.3207C2.19853 22.0281 1.49467 19.4234 1.50202 16.7608C1.50202 8.41731 8.29289 1.63367 16.6365 1.63367C20.6848 1.63367 24.4864 3.20796 27.3379 6.06652C30.1963 8.92509 31.7707 12.7268 31.7635 16.768C31.7635 25.1115 24.9726 31.8951 16.629 31.8951H16.6219C14.0947 31.8941 11.608 31.2606 9.38842 30.0523L1.37146 32.1564V32.1563ZM9.76564 27.3098L10.2227 27.5855C12.1527 28.7319 14.3654 29.3341 16.6219 29.3413H16.6291C23.5578 29.3413 29.2024 23.704 29.2024 16.768C29.2024 13.4089 27.8965 10.2528 25.524 7.87315C23.1515 5.49347 19.9883 4.18751 16.6291 4.18751C9.69314 4.18751 4.04864 9.82479 4.04864 16.7608C4.04864 19.1333 4.70878 21.4477 5.97125 23.45L6.26874 23.9289L4.99904 28.5649L9.76564 27.3098Z" fill="white"/>
<path d="M12.8491 10.4271C12.566 9.79587 12.2685 9.7813 12.0002 9.77407C11.7826 9.76685 11.5287 9.76685 11.2747 9.76685C11.0208 9.76685 10.6144 9.86115 10.2662 10.2384C9.91788 10.6157 8.94568 11.5299 8.94568 13.3946C8.94568 15.2518 10.3025 17.051 10.4911 17.3049C10.6797 17.5589 13.1102 21.4985 16.9482 23.0148C20.1405 24.2773 20.7935 24.0233 21.4827 23.958C22.1792 23.8927 23.7174 23.0439 24.0365 22.1587C24.3485 21.2736 24.3485 20.519 24.2542 20.3595C24.1599 20.1997 23.906 20.1056 23.5286 19.9168C23.1514 19.7282 21.2941 18.8141 20.9459 18.6835C20.5976 18.553 20.3437 18.4949 20.097 18.8721C19.843 19.2493 19.1176 20.0982 18.8998 20.3522C18.6822 20.6061 18.4573 20.6351 18.08 20.4465C17.7028 20.2579 16.4839 19.8588 15.0402 18.5674C13.9156 17.5662 13.1538 16.3255 12.936 15.9483C12.7184 15.5711 12.9144 15.3677 13.103 15.1793C13.2698 15.0123 13.4802 14.7366 13.6689 14.519C13.8575 14.3014 13.9228 14.1418 14.0461 13.8878C14.1695 13.6339 14.1114 13.4162 14.0171 13.2276C13.9228 13.0389 13.1828 11.1743 12.8491 10.4271Z" fill="white"/>
</svg>
